<svg version="1.1" xmlns="http://www.w3.org/2000/svg" xmlns:xlink="http://www.w3.org/1999/xlink" viewBox="0 0 172 172"><g fill="none" fill-rule="nonzero" stroke="none" stroke-width="1" stroke-linecap="butt" stroke-linejoin="miter" stroke-miterlimit="10" stroke-dasharray="" stroke-dashoffset="0" font-family="none" font-weight="none" font-size="none" text-anchor="none" style="mix-blend-mode: normal"><path d="M0,172v-172h172v172z" fill="none"></path><g fill="#000000"><path d="M86,6.88c-43.69832,0 -79.12,35.42168 -79.12,79.12c0,43.69832 35.42168,79.12 79.12,79.12c43.69832,0 79.12,-35.42168 79.12,-79.12c0,-43.69832 -35.42168,-79.12 -79.12,-79.12zM64.39922,55.04h23.38125c11.7132,0 19.82703,8.23611 19.82703,20.03531c0,11.58592 -8.28718,19.78672 -19.91437,19.78672h-15.57406v22.09797h-7.71985zM72.11906,61.90656v26.0889h13.64578c8.79608,0 13.90109,-4.72263 13.90109,-12.92015c0,-8.4968 -4.93301,-13.16875 -13.90109,-13.16875z"></path></g></g></svg>